<?xml version="1.0" encoding="UTF-8" standalone="no"?>
<svg
   xmlns:dc="http://purl.org/dc/elements/1.1/"
   xmlns:cc="http://creativecommons.org/ns#"
   xmlns:rdf="http://www.w3.org/1999/02/22-rdf-syntax-ns#"
   xmlns:svg="http://www.w3.org/2000/svg"
   xmlns="http://www.w3.org/2000/svg"
   xmlns:sodipodi="http://sodipodi.sourceforge.net/DTD/sodipodi-0.dtd"
   xmlns:inkscape="http://www.inkscape.org/namespaces/inkscape"
   width="450"
   height="154.62762"
   viewBox="0 0 119.0625 40.911894"
   version="1.1"
   id="svg4932"
   inkscape:version="0.91 r13725"
   sodipodi:docname="logo-strata-vector-text-strata-only-path-3.svg"
   inkscape:export-filename="/home/gareth/Documents/projects/strata/logo-strata-vector-text-strata-only-pl-1.svg"
   inkscape:export-xdpi="114.437"
   inkscape:export-ydpi="114.437">
  <sodipodi:namedview
     pagecolor="#ffffff"
     bordercolor="#666666"
     borderopacity="1"
     objecttolerance="10"
     gridtolerance="10"
     guidetolerance="10"
     inkscape:pageopacity="0"
     inkscape:pageshadow="2"
     inkscape:window-width="1863"
     inkscape:window-height="1056"
     id="namedview5082"
     showgrid="false"
     showguides="true"
     inkscape:guide-bbox="true"
     inkscape:zoom="0.74226606"
     inkscape:cx="200.06303"
     inkscape:cy="77.313812"
     inkscape:window-x="57"
     inkscape:window-y="24"
     inkscape:window-maximized="1"
     inkscape:current-layer="svg4932">
    <sodipodi:guide
       position="122.62,13.18878"
       orientation="0,1"
       id="guide5624" />
  </sodipodi:namedview>
  <defs
     id="defs4926">
    <clipPath
       id="clipPath4969"
       clipPathUnits="userSpaceOnUse">
      <path
         id="path4967"
         d="M 0,260 271,260 271,0 0,0 Z"
         inkscape:connector-curvature="0" />
    </clipPath>
  </defs>
  <metadata
     id="metadata4929">
    <rdf:RDF>
      <cc:Work
         rdf:about="">
        <dc:format>image/svg+xml</dc:format>
        <dc:type
           rdf:resource="http://purl.org/dc/dcmitype/StillImage" />
        <dc:title></dc:title>
      </cc:Work>
    </rdf:RDF>
  </metadata>
  <g
     id="layer1"
     transform="translate(-2.8790351,-231.00975)">
    <g
       id="g4995"
       transform="matrix(0.22543759,0,0,-0.23897845,28.811527,255.7912)">
      <path
         d="m 0,0 c -8.875,-6.044 -20.356,-6.044 -29.23,0 l -69.182,47.093 0,-15.006 c 0,-3.982 1.969,-7.705 5.26,-9.945 l 66.161,-45.037 c 7.513,-5.117 17.234,-5.117 24.747,0 l 66.136,45.024 c 3.291,2.241 5.26,5.964 5.26,9.945 l 0,15.003 z"
         style="fill:#39a5dc;fill-opacity:1;fill-rule:nonzero;stroke:none"
         id="path4997"
         inkscape:connector-curvature="0" />
    </g>
    <g
       id="g5239">
      <g
         transform="matrix(0.22543759,0,0,-0.23897845,28.814728,265.53399)"
         id="g4999">
        <path
           id="path5001"
           style="fill:#0075ac;fill-opacity:1;fill-rule:nonzero;stroke:none"
           d="m 0,0 c -4.44,-3.022 -9.533,-4.54 -14.625,-4.54 -5.093,0 -10.186,1.518 -14.626,4.54 l -85.795,57.599 0,-15.002 c 0,-3.989 1.969,-7.714 5.255,-9.947 l 82.786,-55.541 c 3.762,-2.559 8.077,-3.838 12.38,-3.838 4.302,0 8.617,1.279 12.379,3.838 L 80.54,32.65 c 3.286,2.233 5.255,5.958 5.255,9.947 l 0,15.002 z"
           inkscape:connector-curvature="0" />
      </g>
      <g
         transform="matrix(0.22543759,0,0,-0.23897845,38.691825,240.12678)"
         id="g5003">
        <path
           id="path5005"
           style="fill:#0075ac;fill-opacity:1;fill-rule:nonzero;stroke:none"
           d="m 0,0 0,-8.203 -0.012,-0.013 c 0.062,-3.098 -1.342,-6.221 -4.215,-8.178 l -41.844,-28.485 c -7.513,-5.118 -17.221,-5.118 -24.747,0 l -41.845,28.485 c -2.145,1.455 -3.462,3.562 -3.976,5.82 l -0.251,1.104 0,1.053 0,0.026 0,8.09 0.013,0 c -0.038,1.33 0.201,2.672 0.715,3.914 0.664,1.68 1.831,3.211 3.499,4.34 l 36.2,24.647 c 10.875,7.4 25.162,7.4 36.037,0 L -4.227,7.953 C -2.822,6.999 -1.769,5.77 -1.066,4.39 -0.94,4.14 -0.815,3.889 -0.715,3.625 -0.238,2.471 0,1.229 0,0"
           inkscape:connector-curvature="0" />
      </g>
    </g>
  </g>
  <path
     inkscape:connector-curvature="0"
     id="path5683"
     style="font-style:normal;font-variant:normal;font-weight:normal;font-stretch:normal;font-size:19.75555611px;line-height:125%;font-family:'Open Sans';-inkscape-font-specification:'Open Sans';letter-spacing:0px;word-spacing:0px;fill:#0075ac;fill-opacity:1;stroke:none;stroke-width:0.26458335px;stroke-linecap:butt;stroke-linejoin:miter;stroke-opacity:1"
     d="m 68.147132,23.690563 q 0,1.861729 -1.350478,2.903526 -1.350477,1.041797 -3.665582,1.041797 -2.508029,0 -3.858507,-0.6463 l 0,-1.581988 q 0.868164,0.366558 1.890669,0.578776 1.022504,0.212218 2.025716,0.212218 1.639866,0 2.469445,-0.617361 0.829579,-0.627007 0.829579,-1.736328 0,-0.733116 -0.299035,-1.196137 -0.289388,-0.472667 -0.983919,-0.868164 -0.684885,-0.395497 -2.09324,-0.897103 -1.967839,-0.704178 -2.81671,-1.668805 -0.839226,-0.964626 -0.839226,-2.517675 0,-1.63022 1.225076,-2.594846 1.225076,-0.964627 3.241146,-0.964627 2.102887,0 3.868154,0.771701 l -0.511252,1.427648 q -1.745975,-0.733116 -3.395487,-0.733116 -1.302246,0 -2.035362,0.559483 -0.733116,0.559484 -0.733116,1.553049 0,0.733116 0.270095,1.205784 0.270096,0.46302 0.906749,0.858517 0.6463,0.385851 1.967839,0.858518 2.218641,0.790994 3.04822,1.697743 0.839226,0.906749 0.839226,2.35369 z" />
  <path
     inkscape:connector-curvature="0"
     id="path5685"
     style="font-style:normal;font-variant:normal;font-weight:normal;font-stretch:normal;font-size:19.75555611px;line-height:125%;font-family:'Open Sans';-inkscape-font-specification:'Open Sans';letter-spacing:0px;word-spacing:0px;fill:#0075ac;fill-opacity:1;stroke:none;stroke-width:0.26458335px;stroke-linecap:butt;stroke-linejoin:miter;stroke-opacity:1"
     d="m 74.204987,26.314347 q 0.424436,0 0.819933,-0.05788 0.395497,-0.06752 0.627007,-0.135048 l 0,1.225076 q -0.260449,0.125402 -0.771701,0.202572 -0.501606,0.08682 -0.906749,0.08682 -3.067513,0 -3.067513,-3.2315 l 0,-6.289366 -1.514464,0 0,-0.771701 1.514464,-0.665593 0.675238,-2.257227 0.926042,0 0,2.450152 3.067513,0 0,1.244369 -3.067513,0 0,6.221843 q 0,0.95498 0.453375,1.466232 0.453374,0.511252 1.244368,0.511252 z" />
  <path
     inkscape:connector-curvature="0"
     id="path5687"
     style="font-style:normal;font-variant:normal;font-weight:normal;font-stretch:normal;font-size:19.75555611px;line-height:125%;font-family:'Open Sans';-inkscape-font-specification:'Open Sans';letter-spacing:0px;word-spacing:0px;fill:#0075ac;fill-opacity:1;stroke:none;stroke-width:0.26458335px;stroke-linecap:butt;stroke-linejoin:miter;stroke-opacity:1"
     d="m 82.59724,16.677726 q 0.704177,0 1.263661,0.115755 l -0.221865,1.485525 q -0.655946,-0.144694 -1.157552,-0.144694 -1.282953,0 -2.199349,1.041797 -0.906749,1.041797 -0.906749,2.594846 l 0,5.672006 -1.60128,0 0,-10.57231 1.321538,0 0.183279,1.958193 0.07717,0 q 0.588422,-1.032151 1.418001,-1.591634 0.829579,-0.559484 1.823145,-0.559484 z" />
  <path
     inkscape:connector-curvature="0"
     id="path5689"
     style="font-style:normal;font-variant:normal;font-weight:normal;font-stretch:normal;font-size:19.75555611px;line-height:125%;font-family:'Open Sans';-inkscape-font-specification:'Open Sans';letter-spacing:0px;word-spacing:0px;fill:#0075ac;fill-opacity:1;stroke:none;stroke-width:0.26458335px;stroke-linecap:butt;stroke-linejoin:miter;stroke-opacity:1"
     d="m 92.33997,27.442961 -0.318327,-1.504818 -0.07717,0 q -0.790994,0.993566 -1.581988,1.350477 -0.781348,0.347266 -1.958193,0.347266 -1.572341,0 -2.469444,-0.810286 -0.887457,-0.810287 -0.887457,-2.305458 0,-3.202561 5.122168,-3.356901 l 1.794206,-0.05788 0,-0.655946 q 0,-1.244369 -0.540191,-1.832791 -0.530544,-0.598069 -1.707389,-0.598069 -1.321539,0 -2.990343,0.810287 l -0.49196,-1.225076 q 0.781348,-0.424436 1.70739,-0.665593 0.935688,-0.241156 1.871376,-0.241156 1.890668,0 2.797417,0.839225 0.916396,0.839225 0.916396,2.691309 l 0,7.215408 -1.186491,0 z m -3.617351,-1.128614 q 1.495172,0 2.344043,-0.819932 0.858518,-0.819933 0.858518,-2.295812 l 0,-0.954981 -1.60128,0.06752 q -1.909961,0.06752 -2.758833,0.598069 -0.839225,0.520898 -0.839225,1.630219 0,0.868164 0.520898,1.321539 0.530545,0.453374 1.475879,0.453374 z" />
  <path
     inkscape:connector-curvature="0"
     id="path5691"
     style="font-style:normal;font-variant:normal;font-weight:normal;font-stretch:normal;font-size:19.75555611px;line-height:125%;font-family:'Open Sans';-inkscape-font-specification:'Open Sans';letter-spacing:0px;word-spacing:0px;fill:#0075ac;fill-opacity:1;stroke:none;stroke-width:0.26458335px;stroke-linecap:butt;stroke-linejoin:miter;stroke-opacity:1"
     d="m 100.24991,26.314347 q 0.42443,0 0.81993,-0.05788 0.3955,-0.06752 0.62701,-0.135048 l 0,1.225076 q -0.26045,0.125402 -0.7717,0.202572 -0.50161,0.08682 -0.90675,0.08682 -3.067515,0 -3.067515,-3.2315 l 0,-6.289366 -1.514464,0 0,-0.771701 1.514464,-0.665593 0.675238,-2.257227 0.926042,0 0,2.450152 3.067515,0 0,1.244369 -3.067515,0 0,6.221843 q 0,0.95498 0.453375,1.466232 0.453374,0.511252 1.24437,0.511252 z" />
  <path
     inkscape:connector-curvature="0"
     id="path5693"
     style="font-style:normal;font-variant:normal;font-weight:normal;font-stretch:normal;font-size:19.75555611px;line-height:125%;font-family:'Open Sans';-inkscape-font-specification:'Open Sans';letter-spacing:0px;word-spacing:0px;fill:#0075ac;fill-opacity:1;stroke:none;stroke-width:0.26458335px;stroke-linecap:butt;stroke-linejoin:miter;stroke-opacity:1"
     d="m 110.32061,27.442961 -0.31832,-1.504818 -0.0772,0 q -0.79099,0.993566 -1.58198,1.350477 -0.78135,0.347266 -1.9582,0.347266 -1.57234,0 -2.46944,-0.810286 -0.88746,-0.810287 -0.88746,-2.305458 0,-3.202561 5.12217,-3.356901 l 1.79421,-0.05788 0,-0.655946 q 0,-1.244369 -0.54019,-1.832791 -0.53055,-0.598069 -1.70739,-0.598069 -1.32154,0 -2.99035,0.810287 l -0.49196,-1.225076 q 0.78135,-0.424436 1.70739,-0.665593 0.93569,-0.241156 1.87138,-0.241156 1.89067,0 2.79742,0.839225 0.91639,0.839225 0.91639,2.691309 l 0,7.215408 -1.18649,0 z m -3.61735,-1.128614 q 1.49517,0 2.34404,-0.819932 0.85852,-0.819933 0.85852,-2.295812 l 0,-0.954981 -1.60128,0.06752 q -1.90996,0.06752 -2.75883,0.598069 -0.83923,0.520898 -0.83923,1.630219 0,0.868164 0.5209,1.321539 0.53055,0.453374 1.47588,0.453374 z" />
</svg>
